<svg data-v-70b83f88="" version="1.0" xmlns="http://www.w3.org/2000/svg" xmlns:xlink="http://www.w3.org/1999/xlink" width="100%" height="100%" viewBox="0 0 340.000000 250.000000" preserveAspectRatio="xMidYMid meet" color-interpolation-filters="sRGB" style="margin: auto;"> <rect data-v-70b83f88="" x="0" y="0" width="100%" height="100%" fill="#ffffff" fill-opacity="1" class="background"></rect>  <g data-v-70b83f88="" fill="#343844" class="icon-text-wrapper icon-svg-group iconsvg" transform="translate(95.72911834716797,60.29066467285156)"><g fill="#f57b3d" class="iconsvg-imagesvg icon_container" transform="translate(38.77088165283203,0)"><rect fill="#343844" fill-opacity="0" stroke-width="2" x="0" y="0" width="71" height="71" class="image-rect"></rect> <svg viewBox="0 0 60 60" x="0" y="0" width="71" height="71" class="image-svg-svg bn" style="overflow: visible;"><g hollow-target="iconBnFill" mask="url(#5e44bc37-67ec-44ca-a15b-c3eb5bd1b867)"><g><svg fill="#000000" xmlns="http://www.w3.org/2000/svg" xmlns:xlink="http://www.w3.org/1999/xlink" xml:space="preserve" version="1.1" style="shape-rendering: geometricprecision; text-rendering: geometricprecision; overflow: visible;" viewBox="0 0 249 249" x="0" y="0" fill-rule="evenodd" clip-rule="evenodd" width="60" height="60" filtersec="colorsb2323686939" filter="url(#I6mQvOgrLC9BE06Xx-eQv)"><g transform="scale(1, 1) skewX(0)"><defs><filter id="I6mQvOgrLC9BE06Xx-eQv"><feColorMatrix type="matrix" values="0 0 0 0 0.95703125  0 0 0 0 0.48046875  0 0 0 0 0.23828125  0 0 0 1 0"></feColorMatrix></filter></defs><g><path class="fil0" d="M125 0c68,0 124,56 124,125 0,68 -56,124 -124,124 -69,0 -125,-56 -125,-124 0,-69 56,-125 125,-125z"></path></g></g></svg></g> <g><svg xmlns="http://www.w3.org/2000/svg" viewBox="0 0 158.84 93.18" width="49" height="49" x="5.5" y="5.5" class="image-svg-icon"><g><g><path fill="#343844" d="M113.19 87.73L79.42 18.31 45.65 87.73 9.35 13.11l5.06-2.46 31.24 64.21L79.42 5.45l33.77 69.41 31.24-64.21 5.06 2.46-36.3 74.62z"></path><circle cx="45.65" cy="81.29" r="11.88" fill="#f57b3d"></circle><circle cx="113.19" cy="81.29" r="11.88" fill="#f57b3d"></circle><circle cx="11.88" cy="11.88" r="11.88" fill="#f57b3d"></circle><circle cx="79.42" cy="11.88" r="11.88" fill="#f57b3d"></circle><circle cx="146.95" cy="11.88" r="11.88" fill="#f57b3d"></circle></g></g></svg></g></g><mask id="5e44bc37-67ec-44ca-a15b-c3eb5bd1b867"><g fill="white"><svg xmlns="http://www.w3.org/2000/svg" xmlns:xlink="http://www.w3.org/1999/xlink" xml:space="preserve" version="1.1" style="shape-rendering: geometricprecision; text-rendering: geometricprecision; overflow: visible;" viewBox="0 0 249 249" x="0" y="0" fill-rule="evenodd" clip-rule="evenodd" width="60" height="60" filtersec="colorsb2323686939"><g transform="scale(1, 1) skewX(0)"><defs></defs><g><path d="M125 0c68,0 124,56 124,125 0,68 -56,124 -124,124 -69,0 -125,-56 -125,-124 0,-69 56,-125 125,-125z"></path></g></g></svg></g> <g fill="black"><svg xmlns="http://www.w3.org/2000/svg" viewBox="0 0 158.84 93.18" width="49" height="49" x="5.5" y="5.5" class="image-svg-icon"><g><g><path d="M113.19 87.73L79.42 18.31 45.65 87.73 9.35 13.11l5.06-2.46 31.24 64.21L79.42 5.45l33.77 69.41 31.24-64.21 5.06 2.46-36.3 74.62z"></path><circle cx="45.65" cy="81.29" r="11.88"></circle><circle cx="113.19" cy="81.29" r="11.88"></circle><circle cx="11.88" cy="11.88" r="11.88"></circle><circle cx="79.42" cy="11.88" r="11.88"></circle><circle cx="146.95" cy="11.88" r="11.88"></circle></g></g></svg></g></mask></svg> <!----></g> <g transform="translate(0,78)"><g data-gra="path-name" fill-rule="" class="tp-name iconsvg-namesvg" transform="translate(0,0)"><g transform="scale(1)"><g><path d="M6.27 3.12L6.27 3.12Q6.87 3.27 8.05 2.84 9.24 2.41 9.31 2L9.31 2Q9.39 1.78 9.2-1.74L9.2-1.74Q9.09-4.42 9.09-8.39L9.09-8.39Q9.09-12.73 9.15-13.45 9.2-14.18 9.61-14.44L9.61-14.44Q10.28-14.81 8.94-15.73L8.94-15.73Q8.13-16.33 8.11-16.7 8.09-17.07 8.91-18.15L8.91-18.15Q9.05-18.33 9.48-18.93 9.91-19.52 10.06-19.74L10.06-19.74Q11.62-21.97 11.58-20.08L11.58-20.08Q11.58-19.93 11.58-19.74L11.58-19.74Q11.54-18.93 11.73-18.72 11.91-18.52 12.62-18.59L12.62-18.59Q13.4-18.67 13.88-18.94 14.36-19.22 14.36-19.56L14.36-19.56Q14.36-20.19 14.88-20.41L14.88-20.41Q15.1-20.52 18-20.52L18-20.52Q20.34-20.48 20.89-20.35 21.45-20.22 21.45-19.67L21.45-19.67Q21.45-19.41 21.6-19.41L21.6-19.41Q22.08-19.3 21.34-18.15L21.34-18.15Q20.71-17.22 20.11-17L20.11-17Q19.74-16.85 16.07-16.92 12.39-17 11.39-17.14L11.39-17.14Q11.1-17.22 11.13-17L11.13-17Q11.13-16.77 11.47-16.14L11.47-16.14Q11.84-15.36 12.02-15.36L12.02-15.36Q12.06-15.36 13.32-15.51L13.32-15.51Q15.62-15.81 19.89-15.81L19.89-15.81Q22.71-15.81 23.25-15.75 23.79-15.7 24.05-15.44L24.05-15.44Q24.2-15.29 24.08-14.92L24.08-14.92Q23.9-14.32 24.23-14.32L24.23-14.32Q24.53-14.36 24.86-14.84L24.86-14.84Q25.75-16.22 26.2-15.77L26.2-15.77Q26.35-15.62 26.53-14.03L26.53-14.03Q26.76-11.91 27.31-9.17L27.31-9.17Q27.61-7.87 27.57-7.4 27.54-6.94 27.16-6.16L27.16-6.16Q25.94-3.79 23.69-1.41 21.45 0.96 19 2.49L19 2.49Q18.7 2.67 18.7 2.89L18.7 2.89Q18.7 3.01 18.76 3.04 18.81 3.08 18.98 3.06 19.15 3.04 19.41 2.93 19.67 2.82 20.11 2.6L20.11 2.6Q24.16 0.67 27.09-2.34L27.09-2.34Q28.28-3.6 28.63-3.58 28.98-3.56 29.69-2.19L29.69-2.19Q30.84 0.15 32.66 2.12L32.66 2.12Q33.1 2.6 33.25 2.69 33.4 2.78 33.49 2.71 33.58 2.63 33.77 2.23L33.77 2.23Q34.36 0.89 35.7 0.3L35.7 0.3Q36.4 0.04 36.44-0.11 36.48-0.26 35.81-0.82L35.81-0.82Q33.84-2.19 32.23-4.03 30.62-5.86 30.62-6.75L30.62-6.75Q30.62-7.05 31.36-8.83L31.36-8.83Q33.21-13.14 33.88-19.82L33.88-19.82Q34.07-21.45 34.27-21.82 34.47-22.19 35.37-22.27L35.37-22.27Q37.41-22.45 35.18-24.34L35.18-24.34Q34.73-24.68 34.14-25.12L34.14-25.12Q33.51-25.57 33.23-25.51 32.95-25.46 32.36-24.68L32.36-24.68Q31.62-23.75 31.3-23.55 30.99-23.34 30.24-23.34L30.24-23.34Q29.39-23.34 29.26-23.71 29.13-24.08 29.5-25.42L29.5-25.42Q29.95-27.2 30.17-28.05L30.17-28.05Q30.47-29.32 30.67-29.74 30.88-30.17 31.21-30.39L31.21-30.39Q31.91-30.88 30.58-31.28L30.58-31.28Q29.87-31.51 28.35-31.8L28.35-31.8Q27.16-32.06 27.03-31.93 26.9-31.8 26.9-30.5L26.9-30.5Q26.9-25.38 25.31-19.04L25.31-19.04Q24.97-17.66 24.6-17.5 24.23-17.33 23.38-18.18L23.38-18.18Q22.71-18.81 22.73-19.07 22.75-19.33 23.53-19.74L23.53-19.74Q24.16-20.08 24.23-20.34 24.31-20.6 24.23-22.19L24.23-22.19Q24.01-26.94 24.71-27.39L24.71-27.39Q25.46-27.79 23.68-28.43L23.68-28.43Q23.12-28.65 22.23-28.87L22.23-28.87Q21.15-29.21 21.04-29.09L21.04-29.09Q20.97-28.98 21.08-28.09L21.08-28.09Q21.3-26.09 21.36-24.88 21.41-23.68 21.32-22.9 21.23-22.12 20.97-21.84 20.71-21.56 20.22-21.63L20.22-21.63Q19.52-21.67 19.39-22.17 19.26-22.67 19.22-25.53L19.22-25.53Q19.22-28.35 19.28-28.98 19.33-29.61 19.71-29.95L19.71-29.95Q20.26-30.47 18.93-30.99L18.93-30.99Q18.33-31.21 17.26-31.51L17.26-31.51Q16.37-31.77 16.31-31.6 16.25-31.43 16.44-29.39L16.44-29.39Q16.59-27.87 16.61-25.1 16.63-22.34 16.51-22.12L16.51-22.12Q16.22-21.6 15.53-21.6 14.84-21.6 14.55-22.08L14.55-22.08Q14.21-22.6 14.36-24.79 14.51-26.98 14.92-27.35L14.92-27.35Q15.36-27.79 14.58-28.17L14.58-28.17Q14.1-28.39 12.88-28.8L12.88-28.8Q11.58-29.17 11.58-29.35L11.58-29.35Q11.58-29.39 11.62-29.46L11.62-29.46Q11.69-29.54 11.69-29.63 11.69-29.72 11.56-29.85 11.43-29.98 11.19-30.15 10.95-30.32 10.5-30.54L10.5-30.54Q10.46-30.58 9.76-30.99 9.05-31.39 8.68-31.62L8.68-31.62Q7.61-32.32 7.5-32.21L7.5-32.21Q7.42-32.17 7.35-31.84L7.35-31.84Q6.05-27.35 2.78-23.01L2.78-23.01Q2.45-22.56 2.41-22.4 2.38-22.23 2.63-22.08L2.63-22.08Q2.93-21.89 5.27-23.9 7.61-25.9 9.8-28.24L9.8-28.24Q10.17-28.65 10.48-28.87 10.8-29.09 11.02-29.08 11.24-29.06 11.32-28.83L11.32-28.83Q11.62-28.05 11.62-24.64L11.62-24.64Q11.62-23.23 11.24-23.12 10.87-23.01 9.13-24.01L9.13-24.01Q8.68-24.23 8.46-24.34 8.24-24.46 8.11-24.49 7.98-24.53 7.94-24.49 7.9-24.46 7.87-24.34L7.87-24.34Q7.16-21.38 5.57-17.98 3.97-14.58 1.97-11.84L1.97-11.84Q1.45-11.1 1.78-10.95L1.78-10.95Q2.04-10.8 4.01-12.58L4.01-12.58Q4.9-13.47 5.25-13.62 5.6-13.77 5.79-13.4L5.79-13.4Q5.94-12.99 5.9-8.37 5.86-3.75 5.68 0.11L5.68 0.11Q5.57 2.19 5.64 2.6 5.71 3.01 6.27 3.12ZM29.09-11.28L29.09-11.28Q28.65-10.72 28.05-12.28L28.05-12.28Q27.57-13.58 27.09-16.22L27.09-16.22Q26.79-17.78 27.42-19.8 28.05-21.82 28.98-22.15L28.98-22.15Q29.46-22.3 29.95-22.19 30.43-22.08 30.62-21.78L30.62-21.78Q30.95-21 30.28-16.51 29.61-12.02 29.09-11.28ZM10.09 0.3L10.09 0.3Q10.32 0.67 11.28-0.07L11.28-0.07Q15.36-3.19 16.11-9.83L16.11-9.83Q16.25-11.17 16.51-11.47 16.77-11.76 17.81-11.76L17.81-11.76Q19-11.76 19.19-11.34 19.37-10.91 19.37-8.42L19.37-8.42Q19.37-6.09 19.22-5.64 19.07-5.2 18.15-4.82L18.15-4.82Q17.66-4.64 17.66-4.45L17.66-4.45Q17.66-4.27 18.37-2.82L18.37-2.82Q19.15-1.19 19.33-1.15L19.33-1.15Q19.45-1.15 19.71-1.67L19.71-1.67Q19.93-2.08 22.12-4.04L22.12-4.04Q26.24-7.68 25.61-7.76L25.61-7.76Q25.35-7.76 24.38-7.35L24.38-7.35Q22.82-6.68 22.51-6.92 22.19-7.16 22.19-9.02L22.19-9.02Q22.19-10.43 22.32-10.78 22.45-11.13 23.08-11.5 23.71-11.88 23.49-12.32 23.27-12.77 21.97-13.84L21.97-13.84Q21-14.62 20.73-14.62 20.45-14.62 19.82-13.84L19.82-13.84Q18.96-12.8 17.94-12.77 16.92-12.73 14.84-13.66L14.84-13.66Q13.62-14.21 13.47-14.12 13.32-14.03 13.36-12.69L13.36-12.69Q13.4-4.19 10.17-0.07L10.17-0.07Q10.02 0.11 10.09 0.3ZM55.22 3.08L55.22 3.08Q55.74 3.34 56.91 3.01 58.08 2.67 58.6 2.15L58.6 2.15Q58.78 1.97 58.8 1.61 58.82 1.26 58.74-0.71L58.74-0.71Q58.63-3.41 58.63-8.52 58.63-13.62 58.74-13.88L58.74-13.88Q58.97-14.44 59.52-13.58L59.52-13.58Q59.75-13.21 60.15-12.47L60.15-12.47Q64.05-5.12 69.95-1.19L69.95-1.19Q70.62-0.74 70.84-0.65 71.06-0.56 71.18-0.63 71.29-0.71 71.51-1.15L71.51-1.15Q71.88-1.97 72.51-2.58 73.14-3.19 73.77-3.38L73.77-3.38Q74.92-3.71 73.59-4.23L73.59-4.23Q69.84-5.68 65.98-8.79L65.98-8.79Q63.68-10.65 61.66-12.97 59.63-15.29 59.78-15.92L59.78-15.92Q59.82-16.14 60.19-16.22L60.19-16.22Q60.79-16.29 66.69-16.33L66.69-16.33Q73.66-16.37 73.77-16.85L73.77-16.85Q73.92-17.37 71.21-19.45L71.21-19.45Q70.17-20.22 69.9-20.21 69.62-20.19 68.99-19.37L68.99-19.37Q68.84-19.19 68.62-18.89L68.62-18.89Q67.84-17.81 67.35-17.63L67.35-17.63Q66.8-17.4 64.16-17.4L64.16-17.4Q63.49-17.4 63.12-17.4L63.12-17.4Q62.53-17.4 61.56-17.4L61.56-17.4Q59.3-17.37 58.93-17.89 58.56-18.41 58.6-21.6L58.6-21.6Q58.6-22.93 58.6-23.71L58.6-23.71Q58.6-28.43 58.65-29.13 58.71-29.84 59.19-30.13L59.19-30.13Q59.93-30.62 58.22-31.21L58.22-31.21Q57.41-31.51 55.92-31.88L55.92-31.88Q54.88-32.14 54.79-32.08 54.7-32.03 54.77-31.28L54.77-31.28Q55.07-29.09 55.07-23.04L55.07-23.04Q55.07-19.04 55-18.33 54.92-17.63 54.51-17.52L54.51-17.52Q54.44-17.48 54.4-17.48L54.4-17.48Q53.92-17.33 47.7-17.42 41.49-17.52 40.52-17.66L40.52-17.66Q40.19-17.74 40.19-17.59 40.19-17.44 40.52-16.77L40.52-16.77Q40.89-16.03 41.12-15.96 41.34-15.88 42.64-16.07L42.64-16.07Q44.79-16.33 48.76-16.33L48.76-16.33Q52.06-16.33 52.49-16.09 52.92-15.85 52.14-14.44L52.14-14.44Q47.72-6.23 40.71-1L40.71-1Q40.34-0.74 40.13-0.58 39.93-0.41 39.84-0.3 39.74-0.19 39.76-0.11 39.78-0.04 39.89 0.04L39.89 0.04Q40.08 0.15 41.38-0.52L41.38-0.52Q48.28-4.04 53.14-9.72L53.14-9.72Q54.51-11.32 54.81-11.17L54.81-11.17Q54.92-11.13 55-10.87L55-10.87Q55.11-10.65 55.09-6.64 55.07-2.63 54.92-0.37L54.92-0.37Q54.77 2 54.81 2.47 54.85 2.93 55.22 3.08ZM61.19-19.45L61.19-19.45Q61.49-19.19 63.44-20.8 65.39-22.41 67.76-24.9L67.76-24.9Q69.69-26.87 70.29-27.02L70.29-27.02Q71.62-27.24 69.25-28.31L69.25-28.31Q68.21-28.91 67.39-29.39L67.39-29.39Q66.2-30.1 66.05-29.95L66.05-29.95Q65.98-29.91 65.83-29.46L65.83-29.46Q65.35-27.83 64.13-25.25 62.9-22.67 61.68-20.71L61.68-20.71Q61.01-19.67 61.19-19.45ZM48.76-19.59L48.76-19.59Q49.91-19.15 50.65-20.06 51.4-20.97 51.1-22.49L51.1-22.49Q50.73-24.34 49.04-26.01 47.35-27.68 44.61-28.87L44.61-28.87Q43.75-29.24 43.6-29.13 43.46-29.02 43.94-28.31L43.94-28.31Q46.83-24.57 47.83-20.82L47.83-20.82Q47.98-20.22 48.17-20 48.35-19.78 48.76-19.59ZM81.46 3.12L81.46 3.12Q82.01 3.27 83 2.95 83.98 2.63 84.5 2.15L84.5 2.15Q84.68 1.97 84.72 1.74 84.76 1.52 84.68 0.45L84.68 0.45Q84.65 0 84.61-1.28 84.57-2.56 84.57-2.82L84.57-2.82Q84.35-9.2 84.98-9.2L84.98-9.2Q85.05-9.2 85.2-9.09L85.2-9.09Q85.72-8.61 86.33-7.61 86.95-6.61 87.13-5.9L87.13-5.9Q87.39-5.05 88.12-4.9 88.84-4.75 89.51-5.46L89.51-5.46Q90.03-6.01 90.14-5.53L90.14-5.53Q90.25-5.12 90.29-3.41L90.29-3.41Q90.32-1.26 90.06-0.91 89.8-0.56 88.17-0.63L88.17-0.63Q86.72-0.67 86.69-0.56L86.69-0.56Q86.58-0.26 87.06-0.15L87.06-0.15Q88.25 0.15 88.75 0.76 89.25 1.37 89.51 2.82L89.51 2.82Q89.66 3.15 90.23 3.14 90.81 3.12 91.59 2.78 92.37 2.45 92.81 2L92.81 2Q93.44 1.34 93.53 0.02 93.63-1.3 93.63-9.02L93.63-9.02Q93.63-17.29 93.7-17.52L93.7-17.52Q93.74-17.7 94.02-17.98 94.29-18.26 94.37-18.26L94.37-18.26Q94.52-18.26 94.76-18.46 95-18.67 95-18.81L95-18.81Q95-19.11 93.85-20.09 92.7-21.08 91.96-21.45L91.96-21.45Q91.47-21.71 90.96-21L90.96-21Q90.44-20.34 90.31-20.15 90.18-19.96 89.67-19.78 89.17-19.59 88.8-19.59 88.43-19.59 87.13-19.59L87.13-19.59Q85.13-19.59 84.67-19.71 84.2-19.82 82.38-20.63L82.38-20.63Q81.08-21.26 80.94-21.21 80.79-21.15 80.9-20.15L80.9-20.15Q81.2-16.48 81.2-10.11 81.2-3.75 80.97-0.11L80.97-0.11Q80.82 2.08 80.9 2.54 80.97 3.01 81.46 3.12ZM90.14-7.27L90.14-7.27Q89.99-7.01 89.9-7.05 89.8-7.09 89.51-7.42L89.51-7.42Q88.43-8.72 87.06-9.24L87.06-9.24Q85.46-9.98 85.02-9.8L85.02-9.8 84.83-9.72Q84.68-9.72 84.57-10.95 84.46-12.17 84.5-13.58 84.54-14.99 84.68-15.36L84.68-15.36Q84.83-15.77 84.68-16.25L84.68-16.25Q84.42-17 84.52-17.66 84.61-18.33 84.98-18.52L84.98-18.52Q85.24-18.67 87.43-18.65 89.62-18.63 89.84-18.52L89.84-18.52Q90.25-18.26 90.32-16.14 90.4-14.03 90.03-13.32L90.03-13.32Q89.99-13.25 89.9-13.34 89.8-13.43 89.51-13.88L89.51-13.88Q88.54-15.36 86.46-15.92L86.46-15.92Q85.02-16.33 84.98-16.03L84.98-16.03Q84.94-15.85 85.35-15.36L85.35-15.36Q86.61-13.99 87.32-12.21L87.32-12.21Q87.58-11.58 88.36-11.69 89.14-11.8 89.62-12.54L89.62-12.54Q89.88-12.99 89.99-12.91 90.1-12.84 90.21-12.17L90.21-12.17Q90.32-11.62 90.29-9.56 90.25-7.5 90.14-7.27ZM103.87 3.04L103.87 3.04Q104.05 3.34 105.58 2.88 107.1 2.41 107.62 1.89L107.62 1.89Q107.65 1.86 107.73 1.78L107.73 1.78Q108.32 1.22 108.42-0.06 108.51-1.34 108.54-8.28L108.54-8.28Q108.54-9.02 108.54-9.43L108.54-9.43Q108.58-18.7 108.73-19.26L108.73-19.26Q108.84-19.48 109.14-19.63L109.14-19.63Q109.88-20.08 108.14-20.67L108.14-20.67Q107.36-20.93 106.1-21.23L106.1-21.23Q104.87-21.52 104.83-21.34L104.83-21.34Q104.8-21.26 104.83-21.12L104.83-21.12Q105.13-19.19 105.24-10.48 105.35-1.78 105.09-1.26L105.09-1.26Q104.87-0.82 104.26-0.72 103.65-0.63 101.35-0.74L101.35-0.74Q99.82-0.82 99.79-0.74L99.79-0.74Q99.71-0.63 99.71-0.58 99.71-0.52 99.82-0.45 99.94-0.37 100.14-0.32 100.34-0.26 100.68-0.19L100.68-0.19Q103.28 0.41 103.68 2.52L103.68 2.52Q103.72 2.75 103.87 3.04ZM97.78-3.27L97.78-3.27Q98.08-3.12 98.97-3.28 99.86-3.45 100.34-3.75L100.34-3.75Q100.86-4.04 100.94-4.32 101.01-4.6 100.94-5.9L100.94-5.9Q100.71-11.24 100.71-15.7L100.71-15.7Q100.75-17.44 100.83-17.81 100.9-18.18 101.31-18.55L101.31-18.55Q101.87-19 100.86-19.45L100.86-19.45Q100.16-19.74 98.38-20.22L98.38-20.22Q97.34-20.48 97.23-20.41 97.12-20.34 97.23-19.37L97.23-19.37Q97.45-17.11 97.52-12.91 97.6-8.72 97.45-5.6L97.45-5.6Q97.38-4.01 97.41-3.71 97.45-3.41 97.78-3.27ZM78.26-24.05Q78.63-23.38 78.75-23.27 78.86-23.16 79.08-23.23L79.08-23.23Q81.16-23.56 83.25-23.62 85.35-23.68 96.97-23.71L96.97-23.71Q111.11-23.75 111.74-23.9L111.74-23.9Q111.96-23.97 111.96-24.16L111.96-24.16Q111.96-24.23 111.96-24.27L111.96-24.27Q112-24.49 111.05-25.38 110.1-26.27 108.95-27.16L108.95-27.16Q108.29-27.61 108.06-27.52 107.84-27.42 106.99-26.27L106.99-26.27Q106.1-25.12 105.87-24.97L105.87-24.97Q105.46-24.75 103.2-24.71L103.2-24.71Q102.94-24.71 102.72-24.71L102.72-24.71Q99.56-24.71 99.34-24.97L99.34-24.97Q99.16-25.23 100.38-26.31L100.38-26.31Q100.46-26.42 100.75-26.68L100.75-26.68Q101.68-27.54 103.02-28.83L103.02-28.83Q104.09-29.91 104.54-30.13L104.54-30.13Q105.35-30.5 104.28-30.99L104.28-30.99Q103.57-31.28 101.68-31.88L101.68-31.88Q100.46-32.25 100.25-32.27 100.05-32.29 99.97-32.06L99.97-32.06Q99.3-29.32 98.51-27.29 97.71-25.27 97.12-24.9L97.12-24.9Q96.82-24.68 94.31-24.68 91.81-24.68 91.62-24.9L91.62-24.9Q91.36-25.16 91.62-25.79L91.62-25.79Q92.4-27.54 90.81-29.24 89.21-30.95 86.06-31.69L86.06-31.69Q85.24-31.88 85.15-31.75 85.05-31.62 85.57-30.99L85.57-30.99Q87.06-29.24 87.95-27.29 88.84-25.35 88.36-24.9L88.36-24.9Q88.17-24.71 84.52-24.71 80.86-24.71 78.49-24.9L78.49-24.9Q77.89-24.94 77.89-24.83 77.89-24.71 78.26-24.05ZM129.14 3.12L129.14 3.12Q129.77 3.19 130.68 2.86 131.59 2.52 131.85 2.12L131.85 2.12Q132 1.93 131.92 0.41L131.92 0.41Q131.74-3.6 131.72-7.05 131.7-10.5 131.89-10.84L131.89-10.84Q132.26-11.36 133.19-11.36 134.11-11.36 134.41-10.84L134.41-10.84Q134.6-10.54 134.58-6.92 134.56-3.3 134.34 0.3L134.34 0.3Q134.26 1.93 134.37 2.25 134.48 2.56 135.26 2.56L135.26 2.56Q136.49 2.52 136.92 2.08 137.34 1.63 137.3 0.37L137.3 0.37Q137.3 0.07 137.29-0.46 137.27-1 137.23-1.69 137.19-2.38 137.19-2.75L137.19-2.75Q137.12-4.94 137.12-7.74 137.12-10.54 137.23-10.76L137.23-10.76Q137.45-11.28 138.47-11.32 139.49-11.36 139.79-10.84L139.79-10.84Q139.98-10.5 139.96-7 139.94-3.49 139.75-0.26L139.75-0.26Q139.61 1.78 139.79 2.19 139.98 2.6 140.9 2.45L140.9 2.45Q142.76 2.19 142.8 0.96L142.8 0.96Q142.8 0.63 142.87 0.37 142.95 0.11 143.04 0 143.13-0.11 143.24-0.07L143.24-0.07 143.32-0.04Q143.43 0 143.54 0.04 143.65 0.07 143.72 0.11L143.72 0.11Q144.21 0.3 144.58 0.98 144.95 1.67 144.99 2.52L144.99 2.52Q145.06 3.08 145.19 3.14 145.32 3.19 146.17 3.01L146.17 3.01Q147.36 2.71 147.79 2.15 148.21 1.6 148.36 0.13 148.51-1.34 148.51-5.27L148.51-5.27Q148.51-9.24 148.59-9.93 148.66-10.61 149.07-10.87L149.07-10.87 149.11-10.91Q149.85-11.39 149.88-11.5L149.88-11.5Q149.92-11.76 148.86-12.77 147.81-13.77 147.06-14.18L147.06-14.18Q146.77-14.4 146.54-14.29 146.32-14.18 145.84-13.51L145.84-13.51Q145.25-12.69 144.95-12.58L144.95-12.58Q144.5-12.39 141.5-12.39L141.5-12.39Q141.28-12.39 140.83-12.39L140.83-12.39Q138.31-12.39 138.05-12.65L138.05-12.65Q137.82-12.91 138.68-14.25L138.68-14.25Q138.71-14.32 138.79-14.44L138.79-14.44Q138.97-14.7 139.05-14.84L139.05-14.84Q139.16-15.03 139.38-15.36L139.38-15.36Q140.09-16.51 140.7-16.7 141.31-16.88 144.32-16.88L144.32-16.88Q144.95-16.88 145.28-16.88L145.28-16.88 145.65-16.88Q149.85-16.88 150.14-17.14L150.14-17.14Q150.4-17.33 149.4-18.18L149.4-18.18Q149.37-18.22 149.22-18.37L149.22-18.37Q149.11-18.44 149.07-18.48L149.07-18.48Q147.66-19.67 147.45-20.02 147.25-20.37 147.7-20.78L147.7-20.78Q147.92-20.97 147.97-21.47 148.03-21.97 148.07-24.34L148.07-24.34Q148.1-27.13 148.16-27.67 148.21-28.2 148.55-28.35L148.55-28.35Q149.37-28.8 147.55-29.43L147.55-29.43Q146.95-29.61 146.03-29.87L146.03-29.87Q144.76-30.21 144.63-30.13 144.5-30.06 144.58-29.21L144.58-29.21Q144.8-27.31 144.86-25.4 144.91-23.49 144.73-23.23L144.73-23.23Q144.43-22.71 142.67-22.71 140.9-22.71 140.61-23.23L140.61-23.23Q140.31-23.79 140.46-26.81 140.61-29.84 140.94-30.02L140.94-30.02Q141.72-30.43 139.98-31.02L139.98-31.02Q139.2-31.28 137.9-31.62L137.9-31.62Q137.01-31.84 136.9-31.75 136.79-31.65 136.9-30.73L136.9-30.73Q137.12-28.65 137.19-26.11 137.27-23.56 137.12-23.23L137.12-23.23Q136.9-22.86 135.49-22.71 134.08-22.56 133.45-22.86 132.81-23.16 132.83-25.55 132.85-27.94 133.48-28.35L133.48-28.35Q134.34-28.87 132.29-29.54L132.29-29.54Q132.04-29.65 131.74-29.72L131.74-29.72Q129.99-30.24 129.77-30.23 129.55-30.21 129.59-29.61L129.59-29.61Q130.07-25.53 129.62-24.34L129.62-24.34Q129.44-24.01 129.62-23.64L129.62-23.64Q129.85-23.08 129.7-20.78L129.7-20.78Q129.66-19.78 129.96-19.56 130.25-19.33 131.33-19.56L131.33-19.56Q132.93-19.85 132.93-20.67L132.93-20.67Q132.93-21.23 133.37-21.56L133.37-21.56Q133.56-21.67 138.84-21.69 144.13-21.71 144.39-21.56L144.39-21.56Q144.58-21.49 144.76-21.21 144.95-20.93 144.95-20.67L144.95-20.67Q144.95-20.22 145.39-20.22L145.39-20.22Q146.1-20.22 145.88-19.41L145.88-19.41Q145.62-18.52 144.65-18.07L144.65-18.07Q144.39-17.92 137.42-17.92 130.44-17.92 129.1-18.07L129.1-18.07Q128.25-18.15 128.16-18.07 128.06-18 128.44-17.29L128.44-17.29Q128.81-16.55 128.96-16.44 129.1-16.33 129.66-16.44L129.66-16.44Q136.6-17.66 136.53-15.77L136.53-15.77Q136.45-13.54 135.97-12.97 135.49-12.39 133.67-12.39L133.67-12.39Q132.22-12.39 131.83-12.49 131.44-12.58 130.11-13.21L130.11-13.21Q128.7-13.84 128.66-13.66L128.66-13.66Q128.66-13.62 128.7-13.54L128.7-13.54Q128.77-13.36 128.79-11.65 128.81-9.95 128.73-9.61L128.73-9.61Q128.62-9.09 128.32-8.87 128.03-8.65 126.77-8.2L126.77-8.2Q124.39-7.35 124.09-7.61 123.8-7.87 124.54-10.21L124.54-10.21Q125.54-13.47 126.51-17.11L126.51-17.11Q127.21-19.78 127.62-20.08L127.62-20.08Q128.4-20.6 127.62-20.97L127.62-20.97Q126.99-21.26 124.76-21.75L124.76-21.75Q123.76-21.97 123.65-21.84 123.54-21.71 123.61-20.37L123.61-20.37Q123.72-16.4 122.79-8.28L122.79-8.28Q122.72-7.72 122.59-7.44 122.46-7.16 122.2-6.87 121.94-6.57 121.16-6.27 120.38-5.97 119.46-5.68 118.53-5.38 116.63-4.82L116.63-4.82Q115.89-4.6 115.86-4.45L115.86-4.45Q115.82-4.23 116.63-2.56L116.63-2.56Q117.6-0.59 117.82-0.59L117.82-0.59Q117.93-0.59 118.08-0.82L118.08-0.82Q118.64-1.56 120.38-2.67L120.38-2.67Q125.06-5.68 126.43-6.68L126.43-6.68Q128.1-7.83 128.4-7.79L128.4-7.79Q128.77-7.72 128.77-5.86L128.77-5.86Q128.77-5.86 128.77-4.6L128.77-4.6Q128.7-1.11 128.55 1.86L128.55 1.86Q128.44 3.08 129.14 3.12ZM143.95-0.59L143.95-0.59Q143.17-0.59 143.09-0.52L143.09-0.52Q143.02-0.37 142.87-0.71L142.87-0.71Q142.72-1.22 142.65-2.23L142.65-2.23Q142.54-3.93 142.56-7.29 142.57-10.65 142.69-10.84L142.69-10.84Q142.98-11.36 143.95-11.36 144.91-11.36 145.28-10.84L145.28-10.84Q145.43-10.65 145.45-6.03 145.47-1.41 145.32-1.11L145.32-1.11Q145.13-0.78 144.88-0.67 144.62-0.56 143.95-0.59ZM119.05-8.76L119.05-8.76Q120.27-7.98 120.98-9.8L120.98-9.8Q121.79-12.06 121.01-15.18L121.01-15.18Q120.87-15.66 120.72-16.11L120.72-16.11Q119.75-18.78 118.16-20.67L118.16-20.67Q117.27-21.71 117.27-21.04L117.27-21.04Q117.27-20.74 117.45-20.22L117.45-20.22Q118.49-16.7 118.53-11.47L118.53-11.47Q118.53-9.65 118.6-9.31 118.68-8.98 119.05-8.76ZM116.71-22.93L116.71-22.93Q116.86-22.79 117.04-22.82L117.04-22.82Q118.04-23.04 119.83-23.19L119.83-23.19Q120.83-23.27 124.76-23.34L124.76-23.34Q128.06-23.38 128.66-23.43 129.25-23.49 129.33-23.86L129.33-23.86Q129.33-23.9 129.33-23.94L129.33-23.94Q129.4-24.23 128.05-25.61 126.69-26.98 126.32-26.98L126.32-26.98Q126.02-26.98 125.28-25.79L125.28-25.79Q124.24-24.2 123.95-24.83L123.95-24.83Q123.76-25.27 123.76-27.09L123.76-27.09Q123.76-28.61 123.87-29.08 123.98-29.54 124.32-29.84L124.32-29.84Q124.98-30.36 123.2-30.95L123.2-30.95Q122.5-31.17 121.31-31.47L121.31-31.47Q120.46-31.69 120.31-31.65 120.16-31.62 120.23-31.1L120.23-31.1Q120.46-29.61 120.53-27.35 120.61-25.09 120.42-24.83L120.42-24.83Q119.97-23.97 116.63-24.46L116.63-24.46Q116.04-24.53 116.08-24.05L116.08-24.05Q116.15-23.64 116.71-22.93Z" transform="translate(-1.6518824100494385, 32.27159881591797)"></path></g> <!----> <!----> <!----> <!----> <!----> <!----> <!----></g></g> <g data-gra="path-slogan" fill-rule="" class="tp-slogan iconsvg-slogansvg" fill="#343844" transform="translate(12.415878295898438,42.4661750793457)"><!----> <!----> <g transform="scale(1, 1)"><g transform="scale(1)"><path d="M9.14-8.58L9.14 0L8.02 0L8.02-5.06Q8.02-5.77 8.02-7.22L8.02-7.22L5.58 0L4.41 0L2.02-7.22L1.97-7.22Q1.97-6.70 2.02-5.67L2.02-5.67Q2.02-5.16 2.02-5.06L2.02-5.06L2.02 0L0.84 0L0.84-8.58L2.53-8.58L5.02-1.31L7.45-8.58L9.14-8.58ZM11.02-8.58L12.19-8.58L12.19 0L11.02 0L11.02-8.58ZM21.33-6.05L21.33-6.05L20.20-6.05Q19.78-7.78 17.81-7.83L17.81-7.83Q15.09-7.69 15-4.36L15-4.36Q15-0.80 17.86-0.80L17.86-0.80Q19.83-0.84 20.30-3.19L20.30-3.19L21.42-3.19Q20.91 0.05 17.63 0.14L17.63 0.14Q13.88 0 13.78-4.31L13.78-4.31Q13.97-8.63 17.81-8.81L17.81-8.81Q20.86-8.72 21.33-6.05ZM26.91-3.70L24.09-3.70L24.09 0L22.92 0L22.92-8.58L26.91-8.58Q29.77-8.58 29.77-6.28L29.77-6.28Q29.77-4.88 28.55-4.22L28.55-4.22Q29.58-3.94 29.58-2.58L29.58-2.58L29.67-1.03Q29.63-0.38 30.09-0.19L30.09-0.19L30.09 0L28.64 0Q28.50-0.61 28.45-2.16L28.45-2.16Q28.50-3.70 26.91-3.70L26.91-3.70ZM27-7.64L24.09-7.64L24.09-4.69L26.81-4.69Q28.55-4.69 28.55-6.19L28.55-6.19Q28.55-7.64 27-7.64L27-7.64ZM38.20-4.27L38.20-4.27Q38.02-7.64 35.20-7.83L35.20-7.83Q32.34-7.69 32.20-4.27L32.20-4.27Q32.34-0.94 35.20-0.80L35.20-0.80Q38.02-0.98 38.20-4.27ZM39.38-4.27L39.38-4.27Q39.09 0 35.20 0.14L35.20 0.14Q31.27 0 30.98-4.27L30.98-4.27Q31.22-8.72 35.20-8.81L35.20-8.81Q39.09-8.67 39.38-4.27ZM42.14-8.58L46.45-1.64L46.45-8.58L47.58-8.58L47.58 0L46.27 0L41.91-6.94L41.86-6.94L41.86 0L40.73 0L40.73-8.58L42.14-8.58ZM58.22-3.89L54-3.89L54 0L52.83 0L52.83-8.58L58.78-8.58L58.78-7.59L54-7.59L54-4.92L58.22-4.92L58.22-3.89ZM64.08-3.70L61.27-3.70L61.27 0L60.09 0L60.09-8.58L64.08-8.58Q66.94-8.58 66.94-6.28L66.94-6.28Q66.94-4.88 65.72-4.22L65.72-4.22Q66.75-3.94 66.75-2.58L66.75-2.58L66.84-1.03Q66.80-0.38 67.27-0.19L67.27-0.19L67.27 0L65.81 0Q65.67-0.61 65.63-2.16L65.63-2.16Q65.67-3.70 64.08-3.70L64.08-3.70ZM64.17-7.64L61.27-7.64L61.27-4.69L63.98-4.69Q65.72-4.69 65.72-6.19L65.72-6.19Q65.72-7.64 64.17-7.64L64.17-7.64ZM75.38-4.27L75.38-4.27Q75.19-7.64 72.38-7.83L72.38-7.83Q69.52-7.69 69.38-4.27L69.38-4.27Q69.52-0.94 72.38-0.80L72.38-0.80Q75.19-0.98 75.38-4.27ZM76.55-4.27L76.55-4.27Q76.27 0 72.38 0.14L72.38 0.14Q68.44 0 68.16-4.27L68.16-4.27Q68.39-8.72 72.38-8.81L72.38-8.81Q76.27-8.67 76.55-4.27ZM79.31-8.58L83.63-1.64L83.63-8.58L84.75-8.58L84.75 0L83.44 0L79.08-6.94L79.03-6.94L79.03 0L77.91 0L77.91-8.58L79.31-8.58ZM88.73-7.59L85.83-7.59L85.83-8.58L92.77-8.58L92.77-7.59L89.86-7.59L89.86 0L88.73 0L88.73-7.59ZM99.42-3.47L99.42-2.58L93.38-2.58L93.38-3.47L99.42-3.47ZM102.09-1.03L107.25-1.03L107.25 0L100.92 0L100.92-8.58L107.16-8.58L107.16-7.59L102.09-7.59L102.09-4.92L106.78-4.92L106.78-3.89L102.09-3.89L102.09-1.03ZM110.16-8.58L114.47-1.64L114.47-8.58L115.59-8.58L115.59 0L114.28 0L109.92-6.94L109.88-6.94L109.88 0L108.75 0L108.75-8.58L110.16-8.58ZM120.89 0L117.42 0L117.42-8.58L120.94-8.58Q124.41-8.39 124.55-4.41L124.55-4.41Q124.36-0.09 120.89 0L120.89 0ZM120.75-7.64L118.59-7.64L118.59-0.98L120.84-0.98Q123.28-1.13 123.38-4.31L123.38-4.31Q123.33-7.55 120.75-7.64L120.75-7.64Z" transform="translate(-0.84375, 8.8125)"></path></g></g></g></g></g><defs v-gra="od"></defs></svg>